# xmcd CD database file
#
# Track frame offsets:
#	150
#	13462
#	28750
#	48788
#	65865
#	82364
#	96368
#	112553
#	133420
#	149242
#	162041
#	175598
#	198197
#	215069
#	227715
#
# Disc length: 3192 seconds
#
# Revision: 1
# Processed by: cddbd v1.4PL0 Copyright (c) Steve Scherf et al.
# Submitted via: CDex 1.51
#
DISCID=e00c760f
DTITLE=TUXEDO BIG BAND - Siesta at the Fiesta
DYEAR=1996
DGENRE=Jazz
TTITLE0=Hi Spook
TTITLE1=My melancholy baby
TTITLE2=Organ grinder swing
TTITLE3=Holiday for strings
TTITLE4=Sleepy time gal
TTITLE5=It had to be you
TTITLE6=Siesta at the fiesta
TTITLE7=By the river Sainte Marie
TTITLE8=Mood indigo
TTITLE9=Battle axe
TTITLE10=Coquette
TTITLE11=Okay for baby
TTITLE12=Moonlight and music
TTITLE13=I'm nuts about screwy music
TTITLE14=Well all right then
EXTD=YEAR: 1996
EXTT0=
EXTT1=
EXTT2=
EXTT3=
EXTT4=
EXTT5=
EXTT6=
EXTT7=
EXTT8=
EXTT9=
EXTT10=
EXTT11=
EXTT12=
EXTT13=
EXTT14=
PLAYORDER=
